<?xml version="1.0" encoding="utf-8"?>
<!-- Generator: Adobe Illustrator 25.2.1, SVG Export Plug-In . SVG Version: 6.00 Build 0)  -->
<svg version="1.1" id="Layer_1" xmlns="http://www.w3.org/2000/svg" xmlns:xlink="http://www.w3.org/1999/xlink" x="0px" y="0px"
	 viewBox="0 0 130 130" style="enable-background:new 0 0 130 130;" xml:space="preserve">
<style type="text/css">
	.st0{fill:url(#SVGID_1_);}
</style>
<linearGradient id="SVGID_1_" gradientUnits="userSpaceOnUse" x1="70.1558" y1="104.9994" x2="63.2175" y2="25.6946">
	<stop  offset="0" style="stop-color:#EC008C"/>
	<stop  offset="0.55" style="stop-color:#F25050"/>
	<stop  offset="1" style="stop-color:#F7941D"/>
</linearGradient>
<path class="st0" d="M53.6,79.3l-1-8.6L84,67.2l1,8.6C89,96.3,54.6,100.3,53.6,79.3 M40.9,60.8c1.7,21,3.6,46.8,31.5,44
	c27.8-3.7,23.9-28.9,20.7-49.9L40.9,60.8z M51.7,47.9c-2.4,0.2-4.1,2.4-4,4.7l9-1C56.4,49.3,54,47.4,51.7,47.9 M79.7,40.2
	c-5.9,0.5-4.7,10,1.1,9C86.8,48.6,85.4,39.7,79.7,40.2 M39.7,35c3.8-3.4,43.8-7.7,48.2-5.1C80.6,33.5,52.2,37.5,39.7,35 M63.1,25.8
	C23.9,29.2,25.3,44.1,64.5,39C103.6,35.6,102.5,20.9,63.1,25.8"/>
</svg>
