<?xml version="1.0" encoding="utf-8"?>
<!-- Generator: Adobe Illustrator 25.2.1, SVG Export Plug-In . SVG Version: 6.00 Build 0)  -->
<svg version="1.1" id="Layer_1" xmlns="http://www.w3.org/2000/svg" xmlns:xlink="http://www.w3.org/1999/xlink" x="0px" y="0px"
	 viewBox="0 0 130 130" style="enable-background:new 0 0 130 130;" xml:space="preserve">
<style type="text/css">
	.st0{fill:url(#SVGID_1_);}
	.st1{fill:#ED1B2F;}
</style>
<linearGradient id="SVGID_1_" gradientUnits="userSpaceOnUse" x1="71.904" y1="25.5586" x2="59.7763" y2="94.338">
	<stop  offset="0" style="stop-color:#EC008C"/>
	<stop  offset="0.55" style="stop-color:#F0696A"/>
	<stop  offset="1" style="stop-color:#F69337"/>
</linearGradient>
<path class="st0" d="M52.5,72.9l-2.8-8.1l29.5-10.2l2.8,8.1c3.2,9.4-0.3,16.6-9.7,19.8c-2,0.7-4.1,1.1-6.3,1.1l0,0
	C59.8,83.7,54.9,79.9,52.5,72.9 M36.2,57.7l6.4,18.7c2.6,7.6,7.2,13.2,13.1,16.2s13,3.4,20.3,0.9c7.3-2.5,12.6-7,15.5-13.2
	c2.8-6.2,3-13.3,0.4-20.9l-6.4-18.7L36.2,57.7z M42.2,39.1c-2.2,0.8-3.4,3.2-2.6,5.4c0.8,2.2,3.2,3.4,5.4,2.6
	c2.2-0.8,3.4-3.2,2.6-5.4c-0.6-1.7-2.2-2.9-4-2.9C43.1,38.9,42.6,38.9,42.2,39.1 M65.7,34.3c-0.2-0.6-0.2-1.3,0.1-1.9
	c0.3-0.6,0.8-1.1,1.4-1.3c1.3-0.5,2.8,0.2,3.2,1.6c0.5,1.3-0.2,2.8-1.6,3.2l0,0c-0.2,0-0.5,0.1-0.8,0.1C67,36,66,35.3,65.7,34.3
	 M65.3,25.5c-4.4,1.5-6.8,6.3-5.2,10.7c1.2,3.4,4.4,5.7,8,5.7c0.9,0,1.9-0.2,2.7-0.5c4.4-1.5,6.8-6.3,5.2-10.7
	c-1.2-3.4-4.4-5.7-8-5.7C67.1,25,66.2,25.2,65.3,25.5"/>
<path class="st1" d="M76.5,93.1V80.6c0-3.8-3.1-7-6.9-7c-1.8,0-3.5,0.7-4.9,2c-2.8-2.7-7.2-2.6-9.8,0.2c-1.2,1.3-1.9,3-1.9,4.8v12.7
	c0,6.5,5.3,11.8,11.8,11.8s11.8-5.3,11.8-11.8l0,0l0,0L76.5,93.1"/>
</svg>
