<?xml version="1.0" encoding="utf-8"?>
<!-- Generator: Adobe Illustrator 25.2.1, SVG Export Plug-In . SVG Version: 6.00 Build 0)  -->
<svg version="1.1" id="Layer_1" xmlns="http://www.w3.org/2000/svg" xmlns:xlink="http://www.w3.org/1999/xlink" x="0px" y="0px"
	 viewBox="0 0 130 130" style="enable-background:new 0 0 130 130;" xml:space="preserve">
<style type="text/css">
	.st0{clip-path:url(#SVGID_2_);}
	.st1{fill:url(#SVGID_3_);}
	.st2{clip-path:url(#SVGID_5_);}
	.st3{fill:url(#SVGID_6_);}
</style>
<g>
	<g>
		<defs>
			<path id="SVGID_1_" d="M47.6,66.1v-9.5h34.7v9.5c0,11-6.3,17.3-17.4,17.3C54.1,83.4,47.6,76.9,47.6,66.1 M36,44.2v21.9
				c0,8.9,2.8,16.4,8,21.8c5.2,5.4,12.4,8.3,20.9,8.3s15.8-2.9,21-8.3c5.2-5.4,8-13,8-21.8V44.3L36,44.2z M48.8,26.2
				c-2-1.7-5-1.5-6.7,0.5c-0.8,0.9-1.2,2-1.2,3.1c0,0.1,0,0.3,0,0.4l0,0c0,5,7.9,7.9,7.9,7.9c4.8-1.6,6.7-4.4,7.4-6.3
				c0.3-0.6,0.4-1.2,0.4-1.9c0-0.1,0-0.2,0-0.2c0-2.6-2.1-4.8-4.8-4.8C50.7,25,49.6,25.4,48.8,26.2 M80.7,26.2c-2-1.7-5-1.5-6.7,0.5
				c-0.7,0.9-1.2,2-1.2,3.1c0,0.1,0,0.3,0,0.4l0,0c0,5,7.9,7.9,7.9,7.9c4.8-1.6,6.7-4.4,7.4-6.3c0.3-0.6,0.4-1.2,0.5-1.9
				c0-0.1,0-0.2,0-0.2c0-2.6-2.1-4.7-4.7-4.7C82.7,25,81.5,25.4,80.7,26.2"/>
		</defs>
		<clipPath id="SVGID_2_">
			<use xlink:href="#SVGID_1_"  style="overflow:visible;"/>
		</clipPath>
		<g class="st0">
			
				<linearGradient id="SVGID_3_" gradientUnits="userSpaceOnUse" x1="-480.6351" y1="-187.7401" x2="-479.6381" y2="-187.7401" gradientTransform="matrix(64.771 -64.771 64.771 64.771 43324.2109 -18878.4141)">
				<stop  offset="0" style="stop-color:#EC008C"/>
				<stop  offset="0.55" style="stop-color:#F25050"/>
				<stop  offset="1" style="stop-color:#F7941D"/>
			</linearGradient>
			<polygon class="st1" points="0.4,60.6 65,-4 129.5,60.6 65,125.2 			"/>
		</g>
	</g>
	<g>
		<defs>
			<path id="SVGID_4_" d="M65,72.3c-3.1-3-7.9-2.9-10.9,0.2c-1.4,1.4-2.2,3.4-2.2,5.4v14.1c0,7.2,5.9,13.1,13.1,13.1
				S78,99.1,78,91.9V77.9c0-4.3-3.4-7.7-7.7-7.7C68.3,70.1,66.4,70.9,65,72.3"/>
		</defs>
		<clipPath id="SVGID_5_">
			<use xlink:href="#SVGID_4_"  style="overflow:visible;"/>
		</clipPath>
		<g class="st2">
			
				<linearGradient id="SVGID_6_" gradientUnits="userSpaceOnUse" x1="-488.0464" y1="-189.5943" x2="-487.0494" y2="-189.5943" gradientTransform="matrix(30.6177 -30.6177 30.6177 30.6177 20797.4805 -9035.0596)">
				<stop  offset="0" style="stop-color:#5A0AAD"/>
				<stop  offset="0.14" style="stop-color:#7D0E8F"/>
				<stop  offset="0.32" style="stop-color:#A5136D"/>
				<stop  offset="0.5" style="stop-color:#C41652"/>
				<stop  offset="0.67" style="stop-color:#DB193F"/>
				<stop  offset="0.84" style="stop-color:#E81A33"/>
				<stop  offset="0.98" style="stop-color:#ED1B2F"/>
				<stop  offset="1" style="stop-color:#ED1B2F"/>
			</linearGradient>
			<polygon class="st3" points="34.4,87.6 65,57 95.5,87.6 65,118.1 			"/>
		</g>
	</g>
</g>
</svg>
