<?xml version="1.0" encoding="utf-8"?>
<!-- Generator: Adobe Illustrator 25.2.1, SVG Export Plug-In . SVG Version: 6.00 Build 0)  -->
<svg version="1.1" id="Layer_1" xmlns="http://www.w3.org/2000/svg" xmlns:xlink="http://www.w3.org/1999/xlink" x="0px" y="0px"
	 viewBox="0 0 130 130" style="enable-background:new 0 0 130 130;" xml:space="preserve">
<style type="text/css">
	.st0{clip-path:url(#SVGID_2_);}
	.st1{clip-path:url(#SVGID_4_);}
	.st2{clip-path:url(#SVGID_6_);}
	.st3{fill:#ED1B2F;}
</style>
<g>
	<g>
		<defs>
			<path id="SVGID_1_" d="M52.4,72.7l-2.8-8.1l29.8-10.3l2.8,8.1c3.2,9.4-0.3,16.7-9.8,20c-2,0.7-4.2,1.1-6.3,1.1l0,0
				C59.7,83.6,54.8,79.8,52.4,72.7 M36,57.4l6.5,18.8c2.6,7.6,7.2,13.3,13.2,16.4c6,3.1,13.1,3.4,20.5,0.9
				c7.3-2.5,12.7-7.1,15.6-13.3c2.9-6.2,3-13.4,0.4-21l-6.5-18.9L36,57.4z M42,38.6c-2.2,0.8-3.4,3.2-2.7,5.5s3.2,3.4,5.5,2.7
				c2.2-0.8,3.4-3.2,2.7-5.5c-0.6-1.7-2.2-2.9-4.1-2.9C42.9,38.4,42.5,38.5,42,38.6 M65.4,31.2l-5.8,2l6,1.8l0.1,6.2l3.6-5.1l6,1.8
				l-3.8-5l3.5-5.1l-5.9,2l-3.8-5L65.4,31.2z"/>
		</defs>
		<clipPath id="SVGID_2_">
			<use xlink:href="#SVGID_1_"  style="overflow:visible;"/>
		</clipPath>
		<g class="st0">
			<g>
				<defs>
					
						<rect id="SVGID_3_" x="19.5" y="14.6" transform="matrix(0.7071 -0.7071 0.7071 0.7071 -23.6331 63.9476)" width="91.8" height="91.8"/>
				</defs>
				<clipPath id="SVGID_4_">
					<use xlink:href="#SVGID_3_"  style="overflow:visible;"/>
				</clipPath>
				<g class="st1">
					<g>
						<defs>
							
								<rect id="SVGID_5_" x="-26.4" y="-31.3" transform="matrix(0.7071 -0.7071 0.7071 0.7071 -23.6312 63.9521)" width="183.5" height="183.5"/>
						</defs>
						<clipPath id="SVGID_6_">
							<use xlink:href="#SVGID_5_"  style="overflow:visible;"/>
						</clipPath>
						<g class="st2">
							
								<image style="overflow:visible;enable-background:new    ;" width="1197" height="1197" xlink:href="BC8F4FEF.png"  transform="matrix(0.217 0 0 0.217 -64.4035 -69.3761)">
							</image>
						</g>
					</g>
				</g>
			</g>
		</g>
	</g>
	<path class="st3" d="M76.6,93V80.4c0-3.9-3.1-7-7-7c-1.8,0-3.6,0.7-4.9,2c-2.8-2.7-7.2-2.6-9.9,0.2c-1.3,1.3-2,3.1-2,4.9v12.7
		c0,6.6,5.3,11.9,11.9,11.9S76.6,99.7,76.6,93L76.6,93"/>
</g>
</svg>
