<?xml version="1.0" encoding="utf-8"?>
<!-- Generator: Adobe Illustrator 25.2.1, SVG Export Plug-In . SVG Version: 6.00 Build 0)  -->
<svg version="1.1" id="Layer_1" xmlns="http://www.w3.org/2000/svg" xmlns:xlink="http://www.w3.org/1999/xlink" x="0px" y="0px"
	 viewBox="0 0 130 130" style="enable-background:new 0 0 130 130;" xml:space="preserve">
<style type="text/css">
	.st0{clip-path:url(#SVGID_2_);}
	.st1{fill:url(#SVGID_3_);}
	.st2{clip-path:url(#SVGID_5_);}
	.st3{fill:url(#SVGID_6_);}
</style>
<g>
	<g>
		<defs>
			<path id="SVGID_1_" d="M48.4,68.1V59h33.2v9.1c0,10.5-6.1,16.6-16.6,16.6C54.6,84.7,48.4,78.5,48.4,68.1 M37.3,47.2v21
				c0,8.5,2.6,15.7,7.6,20.9c5,5.1,11.8,7.9,20,7.9s15.1-2.7,20.1-7.9c5-5.2,7.6-12.4,7.6-20.9v-21L37.3,47.2z M47.5,31.2h-6.6
				l5.3,3.9l-2,6.2l5.3-3.8l5.3,3.8l-2-6.2l5.3-3.9h-6.6l-2-6.2L47.5,31.2z M78,31.2h-6.6l5.3,3.9l-2,6.2l5.3-3.8l5.3,3.8l-2-6.2
				l5.3-3.9H82L80,25L78,31.2z"/>
		</defs>
		<clipPath id="SVGID_2_">
			<use xlink:href="#SVGID_1_"  style="overflow:visible;"/>
		</clipPath>
		<g class="st0">
			
				<linearGradient id="SVGID_3_" gradientUnits="userSpaceOnUse" x1="-472.7472" y1="-182.3458" x2="-471.7938" y2="-182.3458" gradientTransform="matrix(66.8074 -66.8074 66.8074 66.8074 43798.4688 -19308.3848)">
				<stop  offset="0" style="stop-color:#A101FF"/>
				<stop  offset="1" style="stop-color:#FE402A"/>
			</linearGradient>
			<polygon class="st1" points="1.3,61 65,-2.7 128.7,61 65,124.7 			"/>
		</g>
	</g>
	<g>
		<defs>
			<path id="SVGID_4_" d="M65,74.1c-2.9-2.8-7.6-2.8-10.4,0.2c-1.3,1.4-2.1,3.2-2.1,5.2v13.4c0.2,6.9,5.9,12.4,12.9,12.2
				c6.6-0.2,12-5.5,12.2-12.2c0,0,0-0.1,0-0.1s0,0,0-0.1V79.4c0-4.1-3.3-7.4-7.4-7.4C68.2,72,66.3,72.7,65,74.1"/>
		</defs>
		<clipPath id="SVGID_5_">
			<use xlink:href="#SVGID_4_"  style="overflow:visible;"/>
		</clipPath>
		<g class="st2">
			
				<linearGradient id="SVGID_6_" gradientUnits="userSpaceOnUse" x1="-473.6401" y1="-180.3221" x2="-472.6866" y2="-180.3221" gradientTransform="matrix(30.6177 -30.6177 30.6177 30.6177 20073.334 -8877.5781)">
				<stop  offset="0" style="stop-color:#EC008C"/>
				<stop  offset="0.55" style="stop-color:#F25050"/>
				<stop  offset="1" style="stop-color:#F7941D"/>
			</linearGradient>
			<polygon class="st3" points="35.8,88.7 65,59.5 94.2,88.7 65,117.9 			"/>
		</g>
	</g>
</g>
</svg>
