<?xml version="1.0" encoding="utf-8"?>
<!-- Generator: Adobe Illustrator 25.2.1, SVG Export Plug-In . SVG Version: 6.00 Build 0)  -->
<svg version="1.1" id="Layer_1" xmlns="http://www.w3.org/2000/svg" xmlns:xlink="http://www.w3.org/1999/xlink" x="0px" y="0px"
	 viewBox="0 0 130 130" style="enable-background:new 0 0 130 130;" xml:space="preserve">
<style type="text/css">
	.st0{clip-path:url(#SVGID_2_);}
	.st1{fill:url(#SVGID_3_);}
</style>
<g>
	<defs>
		<path id="SVGID_1_" d="M48.5,69.4v-9.1h33.2v9.1c0,10.5-6.1,16.6-16.6,16.6C54.7,85.9,48.5,79.8,48.5,69.4 M37.4,48.4v21
			c0,8.5,2.6,15.7,7.6,20.9s11.9,7.9,20.1,7.9s15.1-2.7,20.1-7.9s7.6-12.4,7.6-20.9v-21L37.4,48.4z M25.4,44.2
			c-0.1,0.3-0.2,0.5-0.3,0.8c0,0.1,0,0.1,0,0.2c0,0,0,0,0,0.1c0,0.1,0,0.1,0,0.1l0,0c0,0.3-0.1,0.5-0.1,0.8c0,2.5,2,4.5,4.6,4.5
			c2.4,0,4.4-1.9,4.5-4.3l0,0c0.2-7.2,7.5-7.1,7.5-7.1c-1.8-0.3-3.6-0.5-5.4-0.5C28.7,38.8,26.2,42.3,25.4,44.2 M88.4,39.3
			c0,0,7.3-0.1,7.5,7.1l0,0c0.1,2.5,2.2,4.5,4.7,4.4s4.5-2.2,4.4-4.7c0-0.3,0-0.5-0.1-0.8l0,0c0,0,0-0.1,0-0.1s0,0,0-0.1
			c0-0.1,0-0.1,0-0.2c-0.1-0.3-0.2-0.5-0.3-0.8c-0.8-1.9-3.3-5.4-10.7-5.4C92.1,38.8,90.3,38.9,88.4,39.3 M45.4,36.3
			c0,2.5,2,4.5,4.5,4.5c2.5,0,4.5-2,4.5-4.5s-2-4.5-4.5-4.5C47.5,31.8,45.4,33.8,45.4,36.3 M76,36.3c0,2.5,2,4.5,4.5,4.5
			s4.5-2,4.5-4.5s-2-4.5-4.5-4.5C78,31.8,76,33.8,76,36.3"/>
	</defs>
	<clipPath id="SVGID_2_">
		<use xlink:href="#SVGID_1_"  style="overflow:visible;"/>
	</clipPath>
	<g class="st0">
		
			<linearGradient id="SVGID_3_" gradientUnits="userSpaceOnUse" x1="-462.738" y1="-178.627" x2="-461.7831" y2="-178.627" gradientTransform="matrix(76.714 76.714 76.714 -76.714 49229.6602 21823.3711)">
			<stop  offset="0" style="stop-color:#FEE700"/>
			<stop  offset="1.000000e-02" style="stop-color:#FEE700"/>
			<stop  offset="0.39" style="stop-color:#F9B10E"/>
			<stop  offset="0.8" style="stop-color:#F47D1C"/>
			<stop  offset="1" style="stop-color:#F26921"/>
		</linearGradient>
		<polygon class="st1" points="-8.3,65 64.9,-8.2 138.2,65 64.9,138.3 		"/>
	</g>
</g>
</svg>
