<?xml version="1.0" encoding="utf-8"?>
<!-- Generator: Adobe Illustrator 25.2.1, SVG Export Plug-In . SVG Version: 6.00 Build 0)  -->
<svg version="1.1" id="Layer_1" xmlns="http://www.w3.org/2000/svg" xmlns:xlink="http://www.w3.org/1999/xlink" x="0px" y="0px"
	 viewBox="0 0 130 130" style="enable-background:new 0 0 130 130;" xml:space="preserve">
<style type="text/css">
	.st0{clip-path:url(#SVGID_2_);}
	.st1{fill:url(#SVGID_3_);}
</style>
<g>
	<g>
		<defs>
			<path id="SVGID_1_" d="M56.2,90.4c-12.3-1.7-18.7-9.9-16.9-21.9l1.5-10.5L80,63.4l-1.5,10.5C77,84.7,70.5,90.7,60.3,90.7
				C58.9,90.6,57.6,90.5,56.2,90.4 M26,66.7c-1.4,9.8,0.6,18.6,5.6,25.4c5,6.8,12.9,11.1,22.6,12.5s18.4-0.6,25.1-5.8
				c6.7-5.2,11-13,12.4-22.9l3.4-24.3l-65.7-9.2L26,66.7z M77,43.3c-10.2-1-10.7-9.3-10.7-9.3l10.5,1.4c0,0.5,0,1.1,0.2,1.6
				c0.2,0.7,0.5,1.4,1,1.9c0.5,0.6,1,1.1,1.7,1.5c0.7,0.4,1.4,0.6,2.1,0.7c0.7,0.1,1.5,0.1,2.2-0.1c0.7-0.2,1.4-0.5,2-0.9
				c0.6-0.4,1.1-1,1.4-1.6c0.3-0.5,0.5-1,0.6-1.6l2.3,0.3c0,0-1.5,6.3-10.6,6.3C78.8,43.5,77.9,43.4,77,43.3 M45.6,38.8
				c-10.4-1.3-11.2-9-11.2-9l6.9,0.9c0,0.4,0.1,0.9,0.2,1.3c0.2,0.7,0.5,1.4,1,1.9c0.4,0.6,1,1.1,1.6,1.4c0.7,0.4,1.4,0.6,2.1,0.7
				c0.7,0.1,1.5,0.1,2.2-0.1c1.4-0.4,2.6-1.3,3.4-2.5c0.3-0.4,0.5-0.9,0.6-1.4l5.6,0.7c0,0-2.4,6-10.9,6
				C46.6,38.8,46.1,38.8,45.6,38.8 M45.5,25.1c-0.7,0.2-1.4,0.5-2,0.9c-0.5,0.4-0.9,0.8-1.3,1.4l-11.5-1.6c0,0-0.8,13.8,12.7,15.9
				c14.1,2.2,18.8-8.4,18.8-8.4s0.1,11.6,14.6,13.2c14.2,1.7,17.3-8.8,17.3-8.8l10.1-0.5l0.2-3.2l-10.9,0.4l-5.7-0.8
				c-0.4-1.2-1.3-2.3-2.5-2.9c-0.7-0.4-1.4-0.6-2.1-0.7c-0.7-0.1-1.5-0.1-2.2,0.1c-1.3,0.3-2.4,1.1-3.2,2.1l-25.4-3.4
				c-0.2-0.6-0.4-1.1-0.8-1.6c-0.5-0.6-1.1-1-1.7-1.4c-0.7-0.4-1.4-0.6-2.1-0.7c-0.3,0-0.6-0.1-0.9-0.1C46.4,25,45.9,25.1,45.5,25.1
				"/>
		</defs>
		<clipPath id="SVGID_2_">
			<use xlink:href="#SVGID_1_"  style="overflow:visible;"/>
		</clipPath>
		<g class="st0">
			
				<linearGradient id="SVGID_3_" gradientUnits="userSpaceOnUse" x1="-468.999" y1="-176.3103" x2="-467.8792" y2="-176.3103" gradientTransform="matrix(67.5287 -67.5287 67.5287 67.5287 43602.1523 -19660.1211)">
				<stop  offset="0" style="stop-color:#A101FF"/>
				<stop  offset="1" style="stop-color:#FE402A"/>
			</linearGradient>
			<polygon class="st1" points="-15.8,65.5 64.6,-14.9 144.9,65.5 64.6,145.8 			"/>
		</g>
	</g>
</g>
</svg>
