<?xml version="1.0" encoding="utf-8"?>
<!-- Generator: Adobe Illustrator 25.2.1, SVG Export Plug-In . SVG Version: 6.00 Build 0)  -->
<svg version="1.1" id="Layer_1" xmlns="http://www.w3.org/2000/svg" xmlns:xlink="http://www.w3.org/1999/xlink" x="0px" y="0px"
	 viewBox="0 0 228.6 56.3" style="enable-background:new 0 0 228.6 56.3;" xml:space="preserve">
<style type="text/css">
	.st0{fill:#FFFFFF;}
	.st1{opacity:0.25;fill:#FFFFFF;enable-background:new    ;}
	.st2{opacity:0.5;fill:#FFFFFF;enable-background:new    ;}
	.st3{opacity:5.000000e-02;fill:#FFFFFF;enable-background:new    ;}
</style>
<path class="st0" d="M219.5,32.4c0,4.4,2.1,6.7,6.5,6.7c0.9,0,1.8-0.1,2.7-0.3v-5c-0.4,0.1-0.9,0.2-1.4,0.2c-1.5,0-2.2-0.8-2.2-2.4
	V12.4h-5.6L219.5,32.4L219.5,32.4z"/>
<path class="st0" d="M202.5,26.9c0.1-1.8,2.1-3.1,4.6-3.1c2.2,0,4.1,1.4,4.1,3.1H202.5z M216.8,28.8c0.1-5.2-3.9-9.5-9.1-9.6
	c-0.2,0-0.4,0-0.6,0c-2.7-0.1-5.4,0.9-7.4,2.7c-2,1.9-3,4.5-2.9,7.2v0.1c-0.1,2.7,0.9,5.3,2.9,7.1c2.1,1.8,4.8,2.8,7.5,2.7
	c3.1,0,6-1.2,8.2-3.5l-3.3-3.1c-1.2,1.2-2.9,1.9-4.6,1.8c-3,0-4.9-1.5-5-3.7h14.3C216.8,30,216.9,29.4,216.8,28.8L216.8,28.8z"/>
<path class="st0" d="M187.8,19c-2.8-0.1-5.4,1-7.4,2.9c-2,1.8-3.1,4.4-3,7.1c-0.1,2.7,1,5.3,3,7.1c2,1.9,4.7,2.9,7.4,2.8
	c3,0.1,5.9-1.2,7.9-3.5l-3.5-3.5c-1.1,1.3-2.7,2-4.4,2c-2.6,0-4.8-2.1-4.8-4.7c0-0.1,0-0.2,0-0.3c-0.1-2.6,1.9-4.9,4.6-5
	c0.1,0,0.2,0,0.3,0c1.7,0,3.3,0.7,4.4,2l3.5-3.5C193.7,20.2,190.8,18.9,187.8,19z"/>
<polygon class="st0" points="174.9,19.6 169.3,19.6 169.3,38.5 174.9,38.5 174.9,19.6 "/>
<path class="st0" d="M168.9,14.8c0,1.8,1.4,3.2,3.2,3.2c1.8,0,3.2-1.4,3.2-3.2s-1.4-3.2-3.2-3.2c0,0,0,0,0,0
	C170.3,11.6,168.8,13,168.9,14.8C168.8,14.8,168.8,14.8,168.9,14.8L168.9,14.8z"/>
<path class="st0" d="M159.5,32.4c-0.9,0.9-2.2,1.4-3.5,1.4c-1.3,0-2.5-0.5-3.4-1.4c-0.9-0.9-1.4-2.1-1.4-3.3c0-1.3,0.5-2.5,1.4-3.3
	c0.9-0.9,2.2-1.4,3.5-1.4c1.3,0,2.6,0.5,3.5,1.4c0.9,0.8,1.5,2.1,1.5,3.3C161,30.3,160.4,31.5,159.5,32.4L159.5,32.4z M160.6,19.6
	v2.5c-0.6-1.7-2.8-2.8-5.6-2.8c-2.5-0.1-5,1-6.7,2.9c-1.8,1.9-2.7,4.4-2.7,7c-0.1,2.5,0.9,5,2.7,6.8c1.8,1.8,4.2,2.8,6.8,2.7
	c2.7,0,5-0.9,5.8-2.3v0.4c0,2-0.6,3.4-1.7,4.1c-1.2,0.7-2.5,1.1-3.9,1c-2.1,0-4.1-0.7-5.8-1.8l-2.6,4.1c2.7,1.8,5.9,2.7,9.2,2.6
	c2.5,0.1,4.9-0.7,6.9-2.2c2.6-2,3.3-4.8,3.3-9.2V19.6H160.6z"/>
<polygon class="st0" points="143,19.6 137.4,19.6 137.4,38.5 143,38.5 143,19.6 "/>
<path class="st0" d="M137,14.8c0,1.8,1.4,3.2,3.2,3.2s3.2-1.4,3.2-3.2c0-1.8-1.4-3.2-3.2-3.2c0,0,0,0,0,0
	C138.4,11.6,137,13,137,14.8C137,14.8,137,14.8,137,14.8z"/>
<path class="st0" d="M120,33.3h-3.8V17.6h3.8c3.1,0,5.3,0.7,6.5,2.1c1.4,1.6,2,3.7,1.9,5.8C128.4,30.3,126.2,33.3,120,33.3z
	 M130.6,16c-2.4-2.4-5.8-3.6-10.3-3.6h-9.9v26.2h10c4.5,0,7.9-1.2,10.2-3.5c2.5-2.5,3.8-6,3.6-9.5C134.4,22,133.1,18.5,130.6,16z"/>
<path class="st0" d="M89.4,46.4c0.8,0.2,1.6,0.3,2.5,0.3c1.8,0.1,3.6-0.5,5.1-1.7c1-1,1.7-2.2,2.2-3.5l8.4-21.9h-5.7l-4.7,13.2
	L92,19.6h-5.7l8.1,19.8l-0.3,0.8c-0.1,0.5-0.4,0.9-0.8,1.2c-0.5,0.3-1,0.4-1.6,0.4c-0.8,0-1.5-0.1-2.3-0.3
	C89.4,41.6,89.4,46.4,89.4,46.4z"/>
<polygon class="st0" points="59.4,38.5 61.7,26 69.7,39.6 77.8,26 80,38.5 85.4,38.5 80.7,11.2 69.7,29.6 58.8,11.2 54,38.5 
	59.4,38.5 "/>
<path class="st1" d="M7.7,26.5h22.9V23H7.7V26.5z M38.2,32.7v-3.5c0,5.7-1.8,10.6-5.2,14.1s-8.2,5.3-13.9,5.3S8.6,46.8,5.2,43.3
	S0,35,0,29.2v3.5c0,5.7,1.8,10.6,5.2,14.1s8.2,5.3,13.9,5.3s10.4-1.8,13.9-5.3S38.2,38.4,38.2,32.7"/>
<rect x="7.7" y="19.2" class="st2" width="22.9" height="3.7"/>
<path class="st2" d="M38.2,29.2v-3.7c0,5.7-1.8,10.6-5.2,14.1s-8.2,5.3-13.9,5.3S8.6,43.1,5.2,39.6S0,31.2,0,25.5v3.7
	C0,35,1.8,39.8,5.2,43.3s8.2,5.3,13.9,5.3s10.4-1.8,13.9-5.3S38.2,35,38.2,29.2"/>
<path class="st3" d="M30.5,26.5H7.7c0.1,1.4,0.4,2.8,1,4.1h20.9C30.1,29.3,30.4,27.9,30.5,26.5 M38.2,36.8v-4.2
	c0,5.7-1.8,10.6-5.2,14.1s-8.2,5.3-13.9,5.3S8.6,50.3,5.2,46.8S0,38.4,0,32.7v4.2C0,42.6,1.8,47.5,5.2,51s8.2,5.3,13.9,5.3
	s10.4-1.9,13.9-5.3S38.2,42.6,38.2,36.8"/>
<path class="st0" d="M8.6,6.2c1.7,0,3.1-1.4,3.1-3.1c-0.1-1.7-1.6-3-3.3-2.9C6.8,0.2,5.5,1.5,5.4,3.1C5.5,4.8,6.9,6.2,8.6,6.2
	C8.6,6.2,8.6,6.2,8.6,6.2"/>
<path class="st0" d="M29.6,6.2c1.7,0,3.1-1.4,3.1-3.1c0-1.7-1.4-3.1-3.1-3.1c-1.7,0-3.1,1.4-3.1,3.1C26.5,4.8,27.9,6.2,29.6,6.2"/>
<path class="st0" d="M38.2,25.5V11.3H0v14.2c0,5.7,1.8,10.6,5.2,14.1s8.2,5.3,13.9,5.3s10.4-1.8,13.9-5.3S38.2,31.2,38.2,25.5
	 M30.5,19.2v6.2c0,7.1-4.2,11.2-11.4,11.2S7.7,32.4,7.7,25.4v-6.2L30.5,19.2z"/>
</svg>
